<svg width="80" height="80" viewBox="0 0 80 80" fill="none" xmlns="http://www.w3.org/2000/svg">
<g id="healthicons:i-training-class">
<path id="Vector" fill-rule="evenodd" clip-rule="evenodd" d="M10 10H61.6667V18.3333H58.3333V13.3333H13.3333V51.6667H48.9783V55H10V10ZM60 31.6667C61.3261 31.6667 62.5978 31.1399 63.5355 30.2022C64.4732 29.2645 65 27.9927 65 26.6667C65 25.3406 64.4732 24.0688 63.5355 23.1311C62.5978 22.1934 61.3261 21.6667 60 21.6667C58.6739 21.6667 57.4021 22.1934 56.4645 23.1311C55.5268 24.0688 55 25.3406 55 26.6667C55 27.9927 55.5268 29.2645 56.4645 30.2022C57.4021 31.1399 58.6739 31.6667 60 31.6667ZM63.385 35.0167C65.55 35.0167 67.2633 35.99 68.385 37.4933C69.4333 38.9017 69.8767 40.6433 69.9767 42.2517C70.0746 43.9015 69.8499 45.5546 69.315 47.1183C68.815 48.5683 67.97 50.0683 66.6667 51.0967V67.5C66.6679 68.1281 66.4326 68.7337 66.0076 69.1962C65.5827 69.6588 64.9991 69.9444 64.3732 69.9963C63.7472 70.0482 63.1246 69.8625 62.6293 69.4762C62.134 69.09 61.8022 68.5314 61.7 67.9117L59.55 55H59.0533L56.6233 67.96C56.5079 68.5717 56.1685 69.1183 55.6715 69.493C55.1744 69.8676 54.5554 70.0434 53.9356 69.9859C53.3159 69.9283 52.7398 69.6417 52.3202 69.1819C51.9006 68.7222 51.6675 68.1225 51.6667 67.5V43.7217C51.3334 44.2294 51.0045 44.7399 50.68 45.2533L50.55 45.4583L50.5167 45.5117L50.5083 45.5267C50.2837 45.8873 49.9709 46.1848 49.5993 46.391C49.2278 46.5971 48.8099 46.7052 48.385 46.705H40.0517C39.3886 46.705 38.7527 46.4416 38.2839 45.9728C37.8151 45.5039 37.5517 44.868 37.5517 44.205C37.5517 43.542 37.8151 42.9061 38.2839 42.4372C38.7527 41.9684 39.3886 41.705 40.0517 41.705H47.0133C47.4183 41.0783 47.9517 40.265 48.5117 39.4483C49.095 38.5967 49.7383 37.695 50.3117 36.9883C50.59 36.6433 50.9017 36.2833 51.215 35.9883C51.3683 35.8433 51.5817 35.655 51.8417 35.4883C52.3005 35.1871 52.8362 35.024 53.385 35.0183L63.385 35.0167Z" fill="#222831"/>
</g>
</svg>
